HIERARCHY
ROOT root
{
	OFFSET	0	13.1	24.9
	CHANNELS 6  Xposition Yposition Zposition Xrotation Yrotation Zrotation
	JOINT spine_1
	{
		OFFSET	0	9.99999	0
		CHANNELS 3  Xrotation Yrotation Zrotation
		JOINT spine_2
		{
			OFFSET	0	112	-10
			CHANNELS 3  Xrotation Yrotation Zrotation
			JOINT spine_3
			{
				OFFSET	0	206.5	19.3
				CHANNELS 3  Xrotation Yrotation Zrotation
				JOINT spine_4
				{
					OFFSET	0	110.4	14.6
					CHANNELS 3  Xrotation Yrotation Zrotation
					JOINT neck_1
					{
						OFFSET	0	71.8	-50.3
						CHANNELS 3  Xrotation Yrotation Zrotation
						JOINT neck_2
						{
							OFFSET	0	86.2	-25.8
							CHANNELS 3  Xrotation Yrotation Zrotation
							JOINT head_ee
							{
								OFFSET	0	179.8	-8.7
								CHANNELS 3  Xrotation Yrotation Zrotation
								End Site
								{
									OFFSET	1	0	0
								}
							}
						}
					}
					JOINT left_clavicle
					{
						OFFSET	-43.2	22.4	-70.8
						CHANNELS 3  Xrotation Yrotation Zrotation
						JOINT left_shoulder
						{
							OFFSET	-93.9	-5.79999	48.7
							CHANNELS 3  Xrotation Yrotation Zrotation
							JOINT left_elbow
							{
								OFFSET	-291.4	-30.8	15.2
								CHANNELS 3  Xrotation Yrotation Zrotation
								JOINT left_lowarm_twist
								{
									OFFSET	-110.7	-3.89999	13.6
									CHANNELS 3  Xrotation Yrotation Zrotation
									JOINT left_hand
									{
										OFFSET	-110.7	-3.89999	13.6
										CHANNELS 3  Xrotation Yrotation Zrotation
										JOINT left_ee
										{
											OFFSET	-80.8	-5.10001	12.1
											CHANNELS 3  Xrotation Yrotation Zrotation
											End Site
											{
												OFFSET	1	0	0
											}
										}
									}
								}
							}
						}
					}
					JOINT right_clavicle
					{
						OFFSET	43.2	22.4	-70.8
						CHANNELS 3  Xrotation Yrotation Zrotation
						JOINT right_shoulder
						{
							OFFSET	93.9	-5.79999	48.7
							CHANNELS 3  Xrotation Yrotation Zrotation
							JOINT right_elbow
							{
								OFFSET	291.4	-30.8	15.2
								CHANNELS 3  Xrotation Yrotation Zrotation
								JOINT right_lowarm_twist
								{
									OFFSET	110.7	-3.89999	13.6
									CHANNELS 3  Xrotation Yrotation Zrotation
									JOINT right_hand
									{
										OFFSET	110.7	-3.89999	13.6
										CHANNELS 3  Xrotation Yrotation Zrotation
										JOINT right_ee
										{
											OFFSET	80.8	-5.10001	12.1
											CHANNELS 3  Xrotation Yrotation Zrotation
											End Site
											{
												OFFSET	1	0	0
											}
										}
									}
								}
							}
						}
					}
				}
			}
		}
	}
	JOINT left_hip
	{
		OFFSET	-82.8	-127.5	0.300001
		CHANNELS 3  Xrotation Yrotation Zrotation
		JOINT left_knee
		{
			OFFSET	-28.2	-396.7	2.2
			CHANNELS 3  Xrotation Yrotation Zrotation
			JOINT left_ankle
			{
				OFFSET	-11.7	-411.3	35.4
				CHANNELS 3  Xrotation Yrotation Zrotation
				JOINT left_toes
				{
					OFFSET	0	-60	-88.6
					CHANNELS 3  Xrotation Yrotation Zrotation
					JOINT left_foot_ee
					{
						OFFSET	-22.5	-16.5	-42.2
						CHANNELS 3  Xrotation Yrotation Zrotation
						End Site
						{
							OFFSET	1	0	0
						}
					}
				}
			}
		}
	}
	JOINT right_hip
	{
		OFFSET	82.8	-127.5	0.300001
		CHANNELS 3  Xrotation Yrotation Zrotation
		JOINT right_knee
		{
			OFFSET	28.2	-396.7	2.2
			CHANNELS 3  Xrotation Yrotation Zrotation
			JOINT right_ankle
			{
				OFFSET	11.7	-411.3	35.4
				CHANNELS 3  Xrotation Yrotation Zrotation
				JOINT right_toes
				{
					OFFSET	0	-60	-88.6
					CHANNELS 3  Xrotation Yrotation Zrotation
					JOINT right_foot_ee
					{
						OFFSET	22.5	-16.5	-42.2
						CHANNELS 3  Xrotation Yrotation Zrotation
						End Site
						{
							OFFSET	1	0	0
						}
					}
				}
			}
		}
	}
}
MOTION
Frames: 5
Frame Time: 0.02
1161.92 700.355 -1537.95 -30.589 66.1972 34.2085 7.0844 0.0421105 -0.0464147 7.0844 0.0449787 -0.0436411 7.08437 0.0486445 -0.0395138 7.08437 0.0417935 -0.0467004 -12.3898 14.3884 2.05341 -12.8034 26.042 6.25931 -0.0 0.0 -0.0 -10.6512 23.7765 -12.1517 -21.2556 -20.5994 71.1463 1.25411 -31.8493 0.357839 11.0925 0.256827 -1.39149 3.10105 30.1185 29.6697 -0.0 0.0 -0.0 10.461 -0.650817 -20.5726 -13.1212 52.7071 -59.3079 1.91144 43.4322 -0.761335 80.3019 3.87339 8.62669 3.04531 0.997981 -20.412 0.0 0.0 0.0 43.9442 28.6573 -21.578 -2.82633 0.106008 0.420752 -5.42629 -25.3251 0.967988 -8.61923 0.0 0.0 -0.0 0.0 -0.0 3.09633 10.8044 -6.03991 -16.1417 -0.321626 -2.44806 31.6464 12.0718 4.26979 -6.48537 0.0 0.0 0.0 0.0 0.0 
1145.7 700.333 -1533.56 -30.9386 65.989 34.8515 7.18779 0.133373 -0.0627123 7.18779 0.137093 -0.0540983 7.18767 0.141247 -0.0420794 7.18769 0.132828 -0.0638586 -10.858 14.1596 1.69866 -11.1447 25.6519 5.47978 -0.0 0.0 -0.0 -11.167 24.3103 -12.674 -20.091 -21.522 71.1734 1.36816 -34.1255 0.419946 12.4613 0.26971 -1.56584 2.23017 29.2679 24.1526 -0.0 0.0 -0.0 10.4159 -0.664664 -20.4784 -14.3993 52.1811 -58.6772 1.90361 43.3149 -0.75596 79.9321 3.83072 8.60594 3.65474 -1.14808 -25.7147 0.0 0.0 0.0 41.59 29.3558 -20.2031 -0.770617 0.0309631 0.114206 -1.5897 -26.2333 0.284042 -4.96344 0.0 0.0 -0.0 0.0 -0.0 3.45488 11.4604 -6.8237 -17.2635 -0.318178 -2.62013 28.839 6.98045 3.86486 -5.01441 0.0 0.0 0.0 0.0 0.0 
1128.24 702.198 -1528.6 -31.0834 66.5191 35.1999 7.09844 0.100469 0.0566169 7.09844 0.0966622 0.0628953 7.09855 0.0907704 0.0711346 7.09855 0.100866 0.0559064 -10.1388 13.1768 0.463539 -10.3538 24.5281 3.85021 -0.0 0.0 -0.0 -10.9612 23.8804 -12.5674 -19.1851 -22.6235 70.9851 1.35941 -33.9549 0.415045 11.8876 0.264818 -1.49273 1.61246 29.084 20.4582 -0.0 0.0 -0.0 10.3573 -0.752571 -20.352 -15.7697 51.6191 -57.8321 1.8922 43.1431 -0.748144 80.8465 3.9365 8.65676 3.78665 -2.65882 -27.2913 0.0 0.0 0.0 40.4515 29.4406 -19.4584 0.421921 -0.0176038 -0.0623536 0.408349 -25.9635 -0.0723202 -4.10509 0.0 0.0 -0.0 0.0 -0.0 4.56809 12.8352 -6.93555 -19.9816 -0.295858 -3.03654 26.9098 4.1802 3.61067 -3.24064 0.0 0.0 0.0 0.0 0.0 
1118.09 699.53 -1523.38 -31.3325 66.3172 35.6069 7.15272 0.0447957 0.0413944 7.15272 0.0420709 0.044161 7.15275 0.0380787 0.0476463 7.15275 0.0451256 0.0410346 -9.33786 12.4657 -0.490918 -9.48357 23.7543 2.55909 -0.0 0.0 -0.0 -11.0074 23.6188 -12.7573 -17.9202 -23.5226 71.0232 1.40843 -34.9013 0.442764 11.9607 0.265481 -1.50204 0.997444 28.7303 16.8272 -0.0 0.0 -0.0 10.3309 -0.640007 -20.3043 -17.3473 51.051 -56.5888 1.87887 42.9412 -0.739049 80.8262 3.93413 8.65565 4.07862 -3.84081 -29.9624 0.0 0.0 0.0 39.404 29.8529 -18.9817 0.815895 -0.0344559 -0.120461 2.352 -25.8538 -0.41353 -2.37453 0.0 0.0 -0.0 0.0 -0.0 5.06893 13.5547 -6.85937 -21.556 -0.273903 -3.27712 25.7731 0.372762 3.44498 -2.3085 0.0 0.0 0.0 0.0 0.0 
1103.64 709.134 -1516.27 -32.1811 67.2815 36.7226 7.06433 -0.0350313 0.110589 7.06434 -0.0419973 0.108136 7.06425 -0.0513865 0.104003 7.06424 -0.0343163 0.110813 -8.99861 12.0969 -0.865879 -9.11401 23.2881 2.02695 -0.0 0.0 -0.0 -10.9472 23.3712 -12.7803 -16.4644 -23.7204 71.1089 1.47425 -36.1385 0.481008 12.9095 0.273024 -1.623 0.465533 26.7947 13.2064 -0.0 0.0 -0.0 9.47507 -0.540057 -18.5529 -17.5858 50.1078 -57.9893 1.85351 42.5531 -0.721831 79.4945 3.78038 8.58101 4.65644 -5.27218 -35.0694 0.0 0.0 0.0 37.4273 29.9374 -18.137 1.69177 -0.0733541 -0.24923 1.06069 -26.1731 -0.187957 -3.18188 0.0 0.0 -0.0 0.0 -0.0 6.90132 14.9688 -7.186 -24.0926 -0.224649 -3.66322 24.4004 0.327488 3.28559 -0.0221234 0.0 0.0 0.0 0.0 0.0 
